<?xml version="1.0" encoding="UTF-8" standalone="no"?>
<!-- Created with Inkscape (http://www.inkscape.org/) -->

<svg
   width="1080"
   height="1080"
   viewBox="0 0 1080 1080"
   version="1.1"
   id="svg1"
   sodipodi:docname="Crescent BG.svg"
   inkscape:version="1.4 (86a8ad7, 2024-10-11)"
   xmlns:inkscape="http://www.inkscape.org/namespaces/inkscape"
   xmlns:sodipodi="http://sodipodi.sourceforge.net/DTD/sodipodi-0.dtd"
   xmlns:xlink="http://www.w3.org/1999/xlink"
   xmlns="http://www.w3.org/2000/svg"
   xmlns:svg="http://www.w3.org/2000/svg">
  <sodipodi:namedview
     id="namedview1"
     pagecolor="#505050"
     bordercolor="#eeeeee"
     borderopacity="1"
     inkscape:showpageshadow="0"
     inkscape:pageopacity="0"
     inkscape:pagecheckerboard="0"
     inkscape:deskcolor="#505050"
     inkscape:zoom="0.54722222"
     inkscape:cx="539.0863"
     inkscape:cy="538.17259"
     inkscape:window-width="1920"
     inkscape:window-height="1009"
     inkscape:window-x="1912"
     inkscape:window-y="-8"
     inkscape:window-maximized="1"
     inkscape:current-layer="svg1" />
  <defs
     id="defs1">
    <linearGradient
       id="linearGradient6">
      <stop
         style="stop-color:#121212;stop-opacity:1;"
         offset="0.05186722"
         id="stop6" />
      <stop
         style="stop-color:#1e88e5;stop-opacity:1;"
         offset="1"
         id="stop7" />
    </linearGradient>
    <linearGradient
       xlink:href="#linearGradient6"
       id="linearGradient7"
       x1="599.55389"
       y1="0"
       x2="599.55389"
       y2="1080"
       gradientUnits="userSpaceOnUse" />
    <linearGradient
       xlink:href="#linearGradient6"
       id="linearGradient2"
       gradientUnits="userSpaceOnUse"
       x1="599.55389"
       y1="0"
       x2="599.55389"
       y2="1080" />
    <linearGradient
       inkscape:collect="always"
       xlink:href="#linearGradient2-4"
       id="linearGradient3"
       x1="153.34402"
       y1="215.55716"
       x2="926.65588"
       y2="864.44287"
       gradientUnits="userSpaceOnUse"
       gradientTransform="translate(651.74348,-48.763315)" />
    <linearGradient
       id="linearGradient2-4"
       inkscape:collect="always">
      <stop
         style="stop-color:#ffffff;stop-opacity:1;"
         offset="0.8125"
         id="stop2" />
      <stop
         style="stop-color:#ffffff;stop-opacity:1;"
         offset="1"
         id="stop3" />
    </linearGradient>
  </defs>
  <rect
     style="fill:url(#linearGradient2);display:inline;fill-opacity:1"
     id="rect6"
     width="1080"
     height="1080"
     x="0"
     y="0" />
  <path
     style="display:inline;fill:#f9f9f9;fill-opacity:1"
     id="path3"
     d="m 420.22305,417.76459 c -7.85725,0.26416 -13.68793,-39.65 -19.24694,-45.20911 -5.75818,-5.75829 -46.27377,-12.44646 -46.5474,-20.58523 -0.26416,-7.85726 39.65,-13.68794 45.20911,-19.24695 5.75829,-5.75818 12.44645,-46.27377 20.58523,-46.5474 7.85726,-0.26416 13.68794,39.65 19.24695,45.20911 5.75818,5.75829 46.27377,12.44646 46.5474,20.58523 0.26416,7.85726 -39.65,13.68794 -45.20911,19.24695 -5.75829,5.75818 -12.44646,46.27377 -20.58524,46.5474 z"
     transform="matrix(1.5428326,0,0,1.5428326,-138.30706,-319.40346)" />
  <path
     style="display:inline;fill:#f9f9f9;fill-opacity:1"
     id="path3-4"
     d="m 420.22305,417.76459 c -7.85725,0.26416 -13.68793,-39.65 -19.24694,-45.20911 -5.75818,-5.75829 -46.27377,-12.44646 -46.5474,-20.58523 -0.26416,-7.85726 39.65,-13.68794 45.20911,-19.24695 5.75829,-5.75818 12.44645,-46.27377 20.58523,-46.5474 7.85726,-0.26416 13.68794,39.65 19.24695,45.20911 5.75818,5.75829 46.27377,12.44646 46.5474,20.58523 0.26416,7.85726 -39.65,13.68794 -45.20911,19.24695 -5.75829,5.75818 -12.44646,46.27377 -20.58524,46.5474 z"
     transform="matrix(1.0564214,0,0,1.0564214,-51.241764,86.825904)" />
  <path
     id="path1"
     style="display:inline;fill:url(#linearGradient3);fill-rule:nonzero;stroke-width:1.29186"
     d="M 1293.8476,-23 A 463.10966,463.10966 0 0 1 1504.6077,365.18983 463.10966,463.10966 0 0 1 1041.4976,828.29998 463.10966,463.10966 0 0 1 687,662.44722 521.13253,521.13253 0 0 0 1175.3544,1005.4734 521.13253,521.13253 0 0 0 1696.487,484.34083 521.13253,521.13253 0 0 0 1293.8476,-23 Z"
     transform="translate(-651.7435,48.7633)" />
</svg>
